<svg xmlns="http://www.w3.org/2000/svg" viewBox="0 0 320 180" width="320" height="180" role="img" aria-label="Cây Gia Phả">
  <defs>
    <radialGradient id="gp-bg" cx="0.5" cy="0.35" r="0.8">
      <stop offset="0" stop-color="#fbf5ea"/>
      <stop offset="1" stop-color="#ecdfc6"/>
    </radialGradient>
    <pattern id="gp-dot" width="12" height="12" patternUnits="userSpaceOnUse"><circle cx="6" cy="6" r="0.8" fill="#b89a6a" opacity=".35"/></pattern>
    <linearGradient id="gp-m" x1="0" y1="0" x2="1" y2="1"><stop offset="0" stop-color="#6f9ac4"/><stop offset="1" stop-color="#3f6e9c"/></linearGradient>
    <linearGradient id="gp-f" x1="0" y1="0" x2="1" y2="1"><stop offset="0" stop-color="#dc8aa3"/><stop offset="1" stop-color="#b5486a"/></linearGradient>
    <filter id="gp-sh" x="-20%" y="-20%" width="140%" height="160%"><feDropShadow dx="0" dy="1.5" stdDeviation="1.5" flood-color="#3c2814" flood-opacity=".18"/></filter>
    <g id="gp-cm"><rect x="-22" y="-10" width="44" height="20" rx="5" fill="#fffaf1" stroke="#c9b48e" stroke-width=".6" filter="url(#gp-sh)"/><rect x="-22" y="-7" width="2" height="14" rx="1" fill="#3f6e9c"/><circle cx="-12" cy="0" r="6" fill="url(#gp-m)"/><rect x="-4" y="-4" width="20" height="3" rx="1.5" fill="#4a3a28"/><rect x="-4" y="1.5" width="13" height="2" rx="1" fill="#b8a68c"/></g>
    <g id="gp-cf"><rect x="-22" y="-10" width="44" height="20" rx="5" fill="#fbf4e8" stroke="#c9b48e" stroke-width=".6" stroke-dasharray="2 1.5" filter="url(#gp-sh)"/><rect x="-22" y="-7" width="2" height="14" rx="1" fill="#b5486a"/><circle cx="-12" cy="0" r="6" fill="url(#gp-f)"/><rect x="-4" y="-4" width="20" height="3" rx="1.5" fill="#4a3a28"/><rect x="-4" y="1.5" width="13" height="2" rx="1" fill="#b8a68c"/></g>
  </defs>
  <rect width="320" height="180" fill="url(#gp-bg)"/>
  <rect width="320" height="180" fill="url(#gp-dot)"/>
  <g fill="none" stroke="#b39467" stroke-width="1.6" stroke-linecap="round">
    <path d="M160 52 C160 66 92 62 92 80"/><path d="M160 52 C160 66 228 62 228 80"/><path d="M160 52 C160 66 160 66 160 80"/>
    <path d="M92 100 C92 112 62 110 62 122"/><path d="M92 100 C92 112 122 110 122 122"/>
    <path d="M228 100 C228 112 228 110 228 122"/>
    <path d="M62 142 C62 150 62 150 62 156"/>
  </g>
  <g stroke="#c48a7f" stroke-width="1.6"><path d="M138 42 L182 42"/><path d="M206 90 L250 90"/><path d="M40 132 L84 132"/></g>
  <g fill="#c0392b" stroke="#fff" stroke-width=".7">
    <path d="M160 44.5 C155 40.5 157 36.5 160 39 C163 36.5 165 40.5 160 44.5 Z"/>
    <path d="M228 92.5 C223 88.5 225 84.5 228 87 C231 84.5 233 88.5 228 92.5 Z"/>
    <path d="M62 134.5 C57 130.5 59 126.5 62 129 C65 126.5 67 130.5 62 134.5 Z"/>
  </g>
  <use href="#gp-cm" x="136" y="42"/><use href="#gp-cf" x="184" y="42"/>
  <use href="#gp-cm" x="92" y="90"/><use href="#gp-cf" x="160" y="90"/><use href="#gp-cm" x="204" y="90"/><use href="#gp-cf" x="252" y="90"/>
  <use href="#gp-cm" x="40" y="132"/><use href="#gp-cf" x="84" y="132"/><use href="#gp-cm" x="122" y="132"/><use href="#gp-cf" x="228" y="132"/>
  <use href="#gp-cf" x="62" y="166"/>
  <g transform="translate(272 150)">
    <rect x="-18" y="-14" width="36" height="28" rx="4" fill="#fff" stroke="#d9c9ae" filter="url(#gp-sh)"/>
    <rect x="-13" y="-9" width="26" height="2.4" rx="1" fill="#9e2a20"/><rect x="-13" y="-4" width="22" height="1.8" rx=".9" fill="#b8a68c"/><rect x="-13" y="0" width="24" height="1.8" rx=".9" fill="#b8a68c"/><rect x="-13" y="4" width="16" height="1.8" rx=".9" fill="#b8a68c"/>
    <text x="10" y="12" font-size="10">📎</text>
  </g>
  <g opacity=".8"><ellipse cx="24" cy="30" rx="4" ry="2.4" fill="#a9c46c" transform="rotate(-30 24 30)"/><ellipse cx="296" cy="40" rx="3.4" ry="2.6" fill="#e8a0a8"/><ellipse cx="190" cy="168" rx="3" ry="2.2" fill="#f2c0c6"/><ellipse cx="300" cy="110" rx="4" ry="2.2" fill="#7fa36b" transform="rotate(25 300 110)"/></g>
  <text x="16" y="24" font-family="Cambria, 'Palatino Linotype', 'Noto Serif', serif" font-weight="700" font-size="17" fill="#9e2a20">Cây Gia Phả</text>
</svg>
